<?xml version="1.0" encoding="utf-8"?>
<!-- Generator: Adobe Illustrator 25.3.0, SVG Export Plug-In . SVG Version: 6.00 Build 0)  -->
<svg version="1.1" id="Layer_1" xmlns="http://www.w3.org/2000/svg" xmlns:xlink="http://www.w3.org/1999/xlink" x="0px" y="0px"
	 viewBox="0 0 310 500" style="enable-background:new 0 0 310 500;" xml:space="preserve">
<style type="text/css">
	.st0{fill:#2BB673;}
</style>
<g>
	<polygon class="st0" points="117.3,463.4 148.7,481.6 148.7,155.2 117.3,137 85.9,118.9 65.2,106.9 54.5,100.8 23.1,82.6 
		23.1,409.1 43.8,421 54.5,427.2 54.5,173.3 54.5,173.3 54.5,173.3 54.5,137 85.9,155.2 85.9,155.2 111.2,169.7 117.3,173.3 
		117.3,463.4 	"/>
	<polygon class="st0" points="225.2,98.9 225.2,98.8 256.6,80.7 256.6,44.4 225.2,62.6 214.5,68.7 193.8,80.7 193.8,80.7 
		162.4,98.8 162.4,414.2 162.4,425.3 181.5,414.2 193.8,407.1 193.8,407.1 193.8,407.1 225.2,389 235.9,382.8 256.6,370.9 
		288,352.7 288,352.7 285.8,351.4 288,351.4 288,243.9 288,225.8 288,225.8 288,207.6 256.6,225.8 225.2,243.9 225.2,243.9 
		225.2,243.9 202.2,257.2 193.8,262.1 225.2,280.2 256.6,262.1 256.6,334.6 227.4,351.4 225.2,352.7 193.8,370.8 193.8,370.9 
		193.8,117 	"/>
	<polygon class="st0" points="302.1,363.3 302.2,363.2 302.1,362.9 302.1,6.5 295.9,6.5 295.9,7.2 295.7,7 156.8,84.6 159.8,90 
		295.9,13.9 295.9,359.7 160.1,438.1 163.2,443.4 301.6,363.5 302.1,363.5 	"/>
	<polygon class="st0" points="15.2,61.8 15.2,61.1 9,61.1 9,417.4 8.9,417.7 9,417.8 9,418.1 9.5,418.1 147.9,498 151,492.7 
		15.2,414.3 15.2,68.5 151.4,144.5 154.3,139.2 15.4,61.5 	"/>
</g>
</svg>
